<?xml version="1.0" encoding="utf-8" standalone="no"?>
<!DOCTYPE svg PUBLIC "-//W3C//DTD SVG 1.1//EN"
  "http://www.w3.org/Graphics/SVG/1.1/DTD/svg11.dtd">
<svg xmlns:xlink="http://www.w3.org/1999/xlink" width="864pt" height="576pt" viewBox="0 0 864 576" xmlns="http://www.w3.org/2000/svg" version="1.1">
 <metadata>
  <rdf:RDF xmlns:dc="http://purl.org/dc/elements/1.1/" xmlns:cc="http://creativecommons.org/ns#" xmlns:rdf="http://www.w3.org/1999/02/22-rdf-syntax-ns#">
   <cc:Work>
    <dc:type rdf:resource="http://purl.org/dc/dcmitype/StillImage"/>
    <dc:date>2025-10-16T11:38:10.429954</dc:date>
    <dc:format>image/svg+xml</dc:format>
    <dc:creator>
     <cc:Agent>
      <dc:title>Matplotlib v3.9.2, https://matplotlib.org/</dc:title>
     </cc:Agent>
    </dc:creator>
   </cc:Work>
  </rdf:RDF>
 </metadata>
 <defs>
  <style type="text/css">*{stroke-linejoin: round; stroke-linecap: butt}</style>
 </defs>
 <g id="figure_1">
  <g id="patch_1">
   <path d="M 0 576 
L 864 576 
L 864 0 
L 0 0 
z
" style="fill: #ffffff"/>
  </g>
  <g id="axes_1">
   <g id="patch_2">
    <path d="M 63.92 527.56 
L 853.2 527.56 
L 853.2 32.64 
L 63.92 32.64 
z
" style="fill: #ffffff"/>
   </g>
   <g id="PathCollection_1">
    <defs>
     <path id="m4622872410" d="M 0 1.414214 
C 0.375054 1.414214 0.734797 1.265203 1 1 
C 1.265203 0.734797 1.414214 0.375054 1.414214 0 
C 1.414214 -0.375054 1.265203 -0.734797 1 -1 
C 0.734797 -1.265203 0.375054 -1.414214 0 -1.414214 
C -0.375054 -1.414214 -0.734797 -1.265203 -1 -1 
C -1.265203 -0.734797 -1.414214 -0.375054 -1.414214 0 
C -1.414214 0.375054 -1.265203 0.734797 -1 1 
C -0.734797 1.265203 -0.375054 1.414214 0 1.414214 
z
" style="stroke: #1f77b4; stroke-opacity: 0.5"/>
    </defs>
    <g clip-path="url(#p74422b6e97)">
     <use xlink:href="#m4622872410" x="130.670047" y="470.06012" style="fill: #1f77b4; fill-opacity: 0.5; stroke: #1f77b4; stroke-opacity: 0.5"/>
     <use xlink:href="#m4622872410" x="103.684161" y="500.27542" style="fill: #1f77b4; fill-opacity: 0.5; stroke: #1f77b4; stroke-opacity: 0.5"/>
     <use xlink:href="#m4622872410" x="144.734725" y="455.365248" style="fill: #1f77b4; fill-opacity: 0.5; stroke: #1f77b4; stroke-opacity: 0.5"/>
     <use xlink:href="#m4622872410" x="102.540691" y="500.770752" style="fill: #1f77b4; fill-opacity: 0.5; stroke: #1f77b4; stroke-opacity: 0.5"/>
     <use xlink:href="#m4622872410" x="127.010944" y="472.206562" style="fill: #1f77b4; fill-opacity: 0.5; stroke: #1f77b4; stroke-opacity: 0.5"/>
     <use xlink:href="#m4622872410" x="105.742406" y="497.138312" style="fill: #1f77b4; fill-opacity: 0.5; stroke: #1f77b4; stroke-opacity: 0.5"/>
     <use xlink:href="#m4622872410" x="107.228917" y="495.982535" style="fill: #1f77b4; fill-opacity: 0.5; stroke: #1f77b4; stroke-opacity: 0.5"/>
     <use xlink:href="#m4622872410" x="99.796364" y="505.063636" style="fill: #1f77b4; fill-opacity: 0.5; stroke: #1f77b4; stroke-opacity: 0.5"/>
     <use xlink:href="#m4622872410" x="116.033634" y="485.745658" style="fill: #1f77b4; fill-opacity: 0.5; stroke: #1f77b4; stroke-opacity: 0.5"/>
     <use xlink:href="#m4622872410" x="118.549268" y="485.085214" style="fill: #1f77b4; fill-opacity: 0.5; stroke: #1f77b4; stroke-opacity: 0.5"/>
     <use xlink:href="#m4622872410" x="117.863186" y="484.754992" style="fill: #1f77b4; fill-opacity: 0.5; stroke: #1f77b4; stroke-opacity: 0.5"/>
    </g>
   </g>
   <g id="PathCollection_2">
    <defs>
     <path id="me1604a3591" d="M 0 1.414214 
C 0.375054 1.414214 0.734797 1.265203 1 1 
C 1.265203 0.734797 1.414214 0.375054 1.414214 0 
C 1.414214 -0.375054 1.265203 -0.734797 1 -1 
C 0.734797 -1.265203 0.375054 -1.414214 0 -1.414214 
C -0.375054 -1.414214 -0.734797 -1.265203 -1 -1 
C -1.265203 -0.734797 -1.414214 -0.375054 -1.414214 0 
C -1.414214 0.375054 -1.265203 0.734797 -1 1 
C -0.734797 1.265203 -0.375054 1.414214 0 1.414214 
z
" style="stroke: #ff7f0e; stroke-opacity: 0.5"/>
    </defs>
    <g clip-path="url(#p74422b6e97)">
     <use xlink:href="#me1604a3591" x="817.323636" y="55.136364" style="fill: #ff7f0e; fill-opacity: 0.5; stroke: #ff7f0e; stroke-opacity: 0.5"/>
     <use xlink:href="#me1604a3591" x="734.079038" y="87.993438" style="fill: #ff7f0e; fill-opacity: 0.5; stroke: #ff7f0e; stroke-opacity: 0.5"/>
     <use xlink:href="#me1604a3591" x="781.189992" y="69.170792" style="fill: #ff7f0e; fill-opacity: 0.5; stroke: #ff7f0e; stroke-opacity: 0.5"/>
     <use xlink:href="#me1604a3591" x="779.36044" y="63.39191" style="fill: #ff7f0e; fill-opacity: 0.5; stroke: #ff7f0e; stroke-opacity: 0.5"/>
     <use xlink:href="#me1604a3591" x="754.4328" y="78.912337" style="fill: #ff7f0e; fill-opacity: 0.5; stroke: #ff7f0e; stroke-opacity: 0.5"/>
     <use xlink:href="#me1604a3591" x="779.474787" y="82.709888" style="fill: #ff7f0e; fill-opacity: 0.5; stroke: #ff7f0e; stroke-opacity: 0.5"/>
     <use xlink:href="#me1604a3591" x="750.430656" y="69.005681" style="fill: #ff7f0e; fill-opacity: 0.5; stroke: #ff7f0e; stroke-opacity: 0.5"/>
     <use xlink:href="#me1604a3591" x="777.073501" y="80.398335" style="fill: #ff7f0e; fill-opacity: 0.5; stroke: #ff7f0e; stroke-opacity: 0.5"/>
     <use xlink:href="#me1604a3591" x="751.00239" y="76.105451" style="fill: #ff7f0e; fill-opacity: 0.5; stroke: #ff7f0e; stroke-opacity: 0.5"/>
    </g>
   </g>
   <g id="PathCollection_3">
    <defs>
     <path id="m49bb7f535e" d="M 0 1.414214 
C 0.375054 1.414214 0.734797 1.265203 1 1 
C 1.265203 0.734797 1.414214 0.375054 1.414214 0 
C 1.414214 -0.375054 1.265203 -0.734797 1 -1 
C 0.734797 -1.265203 0.375054 -1.414214 0 -1.414214 
C -0.375054 -1.414214 -0.734797 -1.265203 -1 -1 
C -1.265203 -0.734797 -1.414214 -0.375054 -1.414214 0 
C -1.414214 0.375054 -1.265203 0.734797 -1 1 
C -0.734797 1.265203 -0.375054 1.414214 0 1.414214 
z
" style="stroke: #2ca02c; stroke-opacity: 0.5"/>
    </defs>
    <g clip-path="url(#p74422b6e97)">
     <use xlink:href="#m49bb7f535e" x="264.341662" y="352.666252" style="fill: #2ca02c; fill-opacity: 0.5; stroke: #2ca02c; stroke-opacity: 0.5"/>
     <use xlink:href="#m49bb7f535e" x="265.599478" y="351.015143" style="fill: #2ca02c; fill-opacity: 0.5; stroke: #2ca02c; stroke-opacity: 0.5"/>
     <use xlink:href="#m49bb7f535e" x="316.483883" y="321.295176" style="fill: #2ca02c; fill-opacity: 0.5; stroke: #2ca02c; stroke-opacity: 0.5"/>
     <use xlink:href="#m49bb7f535e" x="262.054722" y="355.142916" style="fill: #2ca02c; fill-opacity: 0.5; stroke: #2ca02c; stroke-opacity: 0.5"/>
     <use xlink:href="#m49bb7f535e" x="269.487276" y="351.840697" style="fill: #2ca02c; fill-opacity: 0.5; stroke: #2ca02c; stroke-opacity: 0.5"/>
    </g>
   </g>
   <g id="PathCollection_4">
    <defs>
     <path id="m2a81efa097" d="M 0 1.414214 
C 0.375054 1.414214 0.734797 1.265203 1 1 
C 1.265203 0.734797 1.414214 0.375054 1.414214 0 
C 1.414214 -0.375054 1.265203 -0.734797 1 -1 
C 0.734797 -1.265203 0.375054 -1.414214 0 -1.414214 
C -0.375054 -1.414214 -0.734797 -1.265203 -1 -1 
C -1.265203 -0.734797 -1.414214 -0.375054 -1.414214 0 
C -1.414214 0.375054 -1.265203 0.734797 -1 1 
C -0.734797 1.265203 -0.375054 1.414214 0 1.414214 
z
" style="stroke: #9467bd; stroke-opacity: 0.5"/>
    </defs>
    <g clip-path="url(#p74422b6e97)">
     <use xlink:href="#m2a81efa097" x="592.746176" y="239.235046" style="fill: #9467bd; fill-opacity: 0.5; stroke: #9467bd; stroke-opacity: 0.5"/>
     <use xlink:href="#m2a81efa097" x="616.301653" y="237.088604" style="fill: #9467bd; fill-opacity: 0.5; stroke: #9467bd; stroke-opacity: 0.5"/>
     <use xlink:href="#m2a81efa097" x="604.866955" y="237.749048" style="fill: #9467bd; fill-opacity: 0.5; stroke: #9467bd; stroke-opacity: 0.5"/>
     <use xlink:href="#m2a81efa097" x="605.667384" y="236.42816" style="fill: #9467bd; fill-opacity: 0.5; stroke: #9467bd; stroke-opacity: 0.5"/>
    </g>
   </g>
   <g id="PathCollection_5">
    <defs>
     <path id="m7745feaad1" d="M 0 1.414214 
C 0.375054 1.414214 0.734797 1.265203 1 1 
C 1.265203 0.734797 1.414214 0.375054 1.414214 0 
C 1.414214 -0.375054 1.265203 -0.734797 1 -1 
C 0.734797 -1.265203 0.375054 -1.414214 0 -1.414214 
C -0.375054 -1.414214 -0.734797 -1.265203 -1 -1 
C -1.265203 -0.734797 -1.414214 -0.375054 -1.414214 0 
C -1.414214 0.375054 -1.265203 0.734797 -1 1 
C -0.734797 1.265203 -0.375054 1.414214 0 1.414214 
z
" style="stroke: #8c564b; stroke-opacity: 0.5"/>
    </defs>
    <g clip-path="url(#p74422b6e97)">
     <use xlink:href="#m7745feaad1" x="746.314164" y="79.077448" style="fill: #8c564b; fill-opacity: 0.5; stroke: #8c564b; stroke-opacity: 0.5"/>
     <use xlink:href="#m7745feaad1" x="678.392061" y="106.816083" style="fill: #8c564b; fill-opacity: 0.5; stroke: #8c564b; stroke-opacity: 0.5"/>
     <use xlink:href="#m7745feaad1" x="717.38438" y="120.52029" style="fill: #8c564b; fill-opacity: 0.5; stroke: #8c564b; stroke-opacity: 0.5"/>
     <use xlink:href="#m7745feaad1" x="691.885004" y="141.654489" style="fill: #8c564b; fill-opacity: 0.5; stroke: #8c564b; stroke-opacity: 0.5"/>
    </g>
   </g>
   <g id="PathCollection_6">
    <defs>
     <path id="m2abb73f3f8" d="M 0 1.414214 
C 0.375054 1.414214 0.734797 1.265203 1 1 
C 1.265203 0.734797 1.414214 0.375054 1.414214 0 
C 1.414214 -0.375054 1.265203 -0.734797 1 -1 
C 0.734797 -1.265203 0.375054 -1.414214 0 -1.414214 
C -0.375054 -1.414214 -0.734797 -1.265203 -1 -1 
C -1.265203 -0.734797 -1.414214 -0.375054 -1.414214 0 
C -1.414214 0.375054 -1.265203 0.734797 -1 1 
C -0.734797 1.265203 -0.375054 1.414214 0 1.414214 
z
" style="stroke: #7f7f7f; stroke-opacity: 0.5"/>
    </defs>
    <g clip-path="url(#p74422b6e97)">
     <use xlink:href="#m2abb73f3f8" x="332.949847" y="328.560057" style="fill: #7f7f7f; fill-opacity: 0.5; stroke: #7f7f7f; stroke-opacity: 0.5"/>
     <use xlink:href="#m2abb73f3f8" x="334.779399" y="328.890279" style="fill: #7f7f7f; fill-opacity: 0.5; stroke: #7f7f7f; stroke-opacity: 0.5"/>
     <use xlink:href="#m2abb73f3f8" x="322.658619" y="331.697164" style="fill: #7f7f7f; fill-opacity: 0.5; stroke: #7f7f7f; stroke-opacity: 0.5"/>
    </g>
   </g>
   <g id="PathCollection_7">
    <defs>
     <path id="m3e3f2322b0" d="M 0 1.414214 
C 0.375054 1.414214 0.734797 1.265203 1 1 
C 1.265203 0.734797 1.414214 0.375054 1.414214 0 
C 1.414214 -0.375054 1.265203 -0.734797 1 -1 
C 0.734797 -1.265203 0.375054 -1.414214 0 -1.414214 
C -0.375054 -1.414214 -0.734797 -1.265203 -1 -1 
C -1.265203 -0.734797 -1.414214 -0.375054 -1.414214 0 
C -1.414214 0.375054 -1.265203 0.734797 -1 1 
C -0.734797 1.265203 -0.375054 1.414214 0 1.414214 
z
" style="stroke: #bcbd22; stroke-opacity: 0.5"/>
    </defs>
    <g clip-path="url(#p74422b6e97)">
     <use xlink:href="#m3e3f2322b0" x="439.521229" y="283.649885" style="fill: #bcbd22; fill-opacity: 0.5; stroke: #bcbd22; stroke-opacity: 0.5"/>
     <use xlink:href="#m3e3f2322b0" x="461.01846" y="278.861668" style="fill: #bcbd22; fill-opacity: 0.5; stroke: #bcbd22; stroke-opacity: 0.5"/>
    </g>
   </g>
   <g id="PathCollection_8">
    <defs>
     <path id="m107638a574" d="M 0 1.414214 
C 0.375054 1.414214 0.734797 1.265203 1 1 
C 1.265203 0.734797 1.414214 0.375054 1.414214 0 
C 1.414214 -0.375054 1.265203 -0.734797 1 -1 
C 0.734797 -1.265203 0.375054 -1.414214 0 -1.414214 
C -0.375054 -1.414214 -0.734797 -1.265203 -1 -1 
C -1.265203 -0.734797 -1.414214 -0.375054 -1.414214 0 
C -1.414214 0.375054 -1.265203 0.734797 -1 1 
C -0.734797 1.265203 -0.375054 1.414214 0 1.414214 
z
" style="stroke: #17becf; stroke-opacity: 0.5"/>
    </defs>
    <g clip-path="url(#p74422b6e97)">
     <use xlink:href="#m107638a574" x="782.905197" y="183.262442" style="fill: #17becf; fill-opacity: 0.5; stroke: #17becf; stroke-opacity: 0.5"/>
     <use xlink:href="#m107638a574" x="597.663096" y="203.405975" style="fill: #17becf; fill-opacity: 0.5; stroke: #17becf; stroke-opacity: 0.5"/>
    </g>
   </g>
   <g id="matplotlib.axis_1">
    <g id="xtick_1">
     <g id="line2d_1">
      <defs>
       <path id="ma33984f62e" d="M 0 0 
L 0 3.5 
" style="stroke: #000000; stroke-width: 0.8"/>
      </defs>
      <g>
       <use xlink:href="#ma33984f62e" x="149.651645" y="527.56" style="stroke: #000000; stroke-width: 0.8"/>
      </g>
     </g>
     <g id="text_1">
      <!-- 1000 -->
      <g transform="translate(136.926645 542.158437) scale(0.1 -0.1)">
       <defs>
        <path id="DejaVuSans-31" d="M 794 531 
L 1825 531 
L 1825 4091 
L 703 3866 
L 703 4441 
L 1819 4666 
L 2450 4666 
L 2450 531 
L 3481 531 
L 3481 0 
L 794 0 
L 794 531 
z
" transform="scale(0.015625)"/>
        <path id="DejaVuSans-30" d="M 2034 4250 
Q 1547 4250 1301 3770 
Q 1056 3291 1056 2328 
Q 1056 1369 1301 889 
Q 1547 409 2034 409 
Q 2525 409 2770 889 
Q 3016 1369 3016 2328 
Q 3016 3291 2770 3770 
Q 2525 4250 2034 4250 
z
M 2034 4750 
Q 2819 4750 3233 4129 
Q 3647 3509 3647 2328 
Q 3647 1150 3233 529 
Q 2819 -91 2034 -91 
Q 1250 -91 836 529 
Q 422 1150 422 2328 
Q 422 3509 836 4129 
Q 1250 4750 2034 4750 
z
" transform="scale(0.015625)"/>
       </defs>
       <use xlink:href="#DejaVuSans-31"/>
       <use xlink:href="#DejaVuSans-30" x="63.623047"/>
       <use xlink:href="#DejaVuSans-30" x="127.246094"/>
       <use xlink:href="#DejaVuSans-30" x="190.869141"/>
      </g>
     </g>
    </g>
    <g id="xtick_2">
     <g id="line2d_2">
      <g>
       <use xlink:href="#ma33984f62e" x="263.998621" y="527.56" style="stroke: #000000; stroke-width: 0.8"/>
      </g>
     </g>
     <g id="text_2">
      <!-- 2000 -->
      <g transform="translate(251.273621 542.158437) scale(0.1 -0.1)">
       <defs>
        <path id="DejaVuSans-32" d="M 1228 531 
L 3431 531 
L 3431 0 
L 469 0 
L 469 531 
Q 828 903 1448 1529 
Q 2069 2156 2228 2338 
Q 2531 2678 2651 2914 
Q 2772 3150 2772 3378 
Q 2772 3750 2511 3984 
Q 2250 4219 1831 4219 
Q 1534 4219 1204 4116 
Q 875 4013 500 3803 
L 500 4441 
Q 881 4594 1212 4672 
Q 1544 4750 1819 4750 
Q 2544 4750 2975 4387 
Q 3406 4025 3406 3419 
Q 3406 3131 3298 2873 
Q 3191 2616 2906 2266 
Q 2828 2175 2409 1742 
Q 1991 1309 1228 531 
z
" transform="scale(0.015625)"/>
       </defs>
       <use xlink:href="#DejaVuSans-32"/>
       <use xlink:href="#DejaVuSans-30" x="63.623047"/>
       <use xlink:href="#DejaVuSans-30" x="127.246094"/>
       <use xlink:href="#DejaVuSans-30" x="190.869141"/>
      </g>
     </g>
    </g>
    <g id="xtick_3">
     <g id="line2d_3">
      <g>
       <use xlink:href="#ma33984f62e" x="378.345597" y="527.56" style="stroke: #000000; stroke-width: 0.8"/>
      </g>
     </g>
     <g id="text_3">
      <!-- 3000 -->
      <g transform="translate(365.620597 542.158437) scale(0.1 -0.1)">
       <defs>
        <path id="DejaVuSans-33" d="M 2597 2516 
Q 3050 2419 3304 2112 
Q 3559 1806 3559 1356 
Q 3559 666 3084 287 
Q 2609 -91 1734 -91 
Q 1441 -91 1130 -33 
Q 819 25 488 141 
L 488 750 
Q 750 597 1062 519 
Q 1375 441 1716 441 
Q 2309 441 2620 675 
Q 2931 909 2931 1356 
Q 2931 1769 2642 2001 
Q 2353 2234 1838 2234 
L 1294 2234 
L 1294 2753 
L 1863 2753 
Q 2328 2753 2575 2939 
Q 2822 3125 2822 3475 
Q 2822 3834 2567 4026 
Q 2313 4219 1838 4219 
Q 1578 4219 1281 4162 
Q 984 4106 628 3988 
L 628 4550 
Q 988 4650 1302 4700 
Q 1616 4750 1894 4750 
Q 2613 4750 3031 4423 
Q 3450 4097 3450 3541 
Q 3450 3153 3228 2886 
Q 3006 2619 2597 2516 
z
" transform="scale(0.015625)"/>
       </defs>
       <use xlink:href="#DejaVuSans-33"/>
       <use xlink:href="#DejaVuSans-30" x="63.623047"/>
       <use xlink:href="#DejaVuSans-30" x="127.246094"/>
       <use xlink:href="#DejaVuSans-30" x="190.869141"/>
      </g>
     </g>
    </g>
    <g id="xtick_4">
     <g id="line2d_4">
      <g>
       <use xlink:href="#ma33984f62e" x="492.692572" y="527.56" style="stroke: #000000; stroke-width: 0.8"/>
      </g>
     </g>
     <g id="text_4">
      <!-- 4000 -->
      <g transform="translate(479.967572 542.158437) scale(0.1 -0.1)">
       <defs>
        <path id="DejaVuSans-34" d="M 2419 4116 
L 825 1625 
L 2419 1625 
L 2419 4116 
z
M 2253 4666 
L 3047 4666 
L 3047 1625 
L 3713 1625 
L 3713 1100 
L 3047 1100 
L 3047 0 
L 2419 0 
L 2419 1100 
L 313 1100 
L 313 1709 
L 2253 4666 
z
" transform="scale(0.015625)"/>
       </defs>
       <use xlink:href="#DejaVuSans-34"/>
       <use xlink:href="#DejaVuSans-30" x="63.623047"/>
       <use xlink:href="#DejaVuSans-30" x="127.246094"/>
       <use xlink:href="#DejaVuSans-30" x="190.869141"/>
      </g>
     </g>
    </g>
    <g id="xtick_5">
     <g id="line2d_5">
      <g>
       <use xlink:href="#ma33984f62e" x="607.039548" y="527.56" style="stroke: #000000; stroke-width: 0.8"/>
      </g>
     </g>
     <g id="text_5">
      <!-- 5000 -->
      <g transform="translate(594.314548 542.158437) scale(0.1 -0.1)">
       <defs>
        <path id="DejaVuSans-35" d="M 691 4666 
L 3169 4666 
L 3169 4134 
L 1269 4134 
L 1269 2991 
Q 1406 3038 1543 3061 
Q 1681 3084 1819 3084 
Q 2600 3084 3056 2656 
Q 3513 2228 3513 1497 
Q 3513 744 3044 326 
Q 2575 -91 1722 -91 
Q 1428 -91 1123 -41 
Q 819 9 494 109 
L 494 744 
Q 775 591 1075 516 
Q 1375 441 1709 441 
Q 2250 441 2565 725 
Q 2881 1009 2881 1497 
Q 2881 1984 2565 2268 
Q 2250 2553 1709 2553 
Q 1456 2553 1204 2497 
Q 953 2441 691 2322 
L 691 4666 
z
" transform="scale(0.015625)"/>
       </defs>
       <use xlink:href="#DejaVuSans-35"/>
       <use xlink:href="#DejaVuSans-30" x="63.623047"/>
       <use xlink:href="#DejaVuSans-30" x="127.246094"/>
       <use xlink:href="#DejaVuSans-30" x="190.869141"/>
      </g>
     </g>
    </g>
    <g id="xtick_6">
     <g id="line2d_6">
      <g>
       <use xlink:href="#ma33984f62e" x="721.386524" y="527.56" style="stroke: #000000; stroke-width: 0.8"/>
      </g>
     </g>
     <g id="text_6">
      <!-- 6000 -->
      <g transform="translate(708.661524 542.158437) scale(0.1 -0.1)">
       <defs>
        <path id="DejaVuSans-36" d="M 2113 2584 
Q 1688 2584 1439 2293 
Q 1191 2003 1191 1497 
Q 1191 994 1439 701 
Q 1688 409 2113 409 
Q 2538 409 2786 701 
Q 3034 994 3034 1497 
Q 3034 2003 2786 2293 
Q 2538 2584 2113 2584 
z
M 3366 4563 
L 3366 3988 
Q 3128 4100 2886 4159 
Q 2644 4219 2406 4219 
Q 1781 4219 1451 3797 
Q 1122 3375 1075 2522 
Q 1259 2794 1537 2939 
Q 1816 3084 2150 3084 
Q 2853 3084 3261 2657 
Q 3669 2231 3669 1497 
Q 3669 778 3244 343 
Q 2819 -91 2113 -91 
Q 1303 -91 875 529 
Q 447 1150 447 2328 
Q 447 3434 972 4092 
Q 1497 4750 2381 4750 
Q 2619 4750 2861 4703 
Q 3103 4656 3366 4563 
z
" transform="scale(0.015625)"/>
       </defs>
       <use xlink:href="#DejaVuSans-36"/>
       <use xlink:href="#DejaVuSans-30" x="63.623047"/>
       <use xlink:href="#DejaVuSans-30" x="127.246094"/>
       <use xlink:href="#DejaVuSans-30" x="190.869141"/>
      </g>
     </g>
    </g>
    <g id="xtick_7">
     <g id="line2d_7">
      <g>
       <use xlink:href="#ma33984f62e" x="835.733499" y="527.56" style="stroke: #000000; stroke-width: 0.8"/>
      </g>
     </g>
     <g id="text_7">
      <!-- 7000 -->
      <g transform="translate(823.008499 542.158437) scale(0.1 -0.1)">
       <defs>
        <path id="DejaVuSans-37" d="M 525 4666 
L 3525 4666 
L 3525 4397 
L 1831 0 
L 1172 0 
L 2766 4134 
L 525 4134 
L 525 4666 
z
" transform="scale(0.015625)"/>
       </defs>
       <use xlink:href="#DejaVuSans-37"/>
       <use xlink:href="#DejaVuSans-30" x="63.623047"/>
       <use xlink:href="#DejaVuSans-30" x="127.246094"/>
       <use xlink:href="#DejaVuSans-30" x="190.869141"/>
      </g>
     </g>
    </g>
    <g id="text_8">
     <!-- Proteome Size -->
     <g transform="translate(401.23875 560.395625) scale(0.16 -0.16)">
      <defs>
       <path id="DejaVuSans-50" d="M 1259 4147 
L 1259 2394 
L 2053 2394 
Q 2494 2394 2734 2622 
Q 2975 2850 2975 3272 
Q 2975 3691 2734 3919 
Q 2494 4147 2053 4147 
L 1259 4147 
z
M 628 4666 
L 2053 4666 
Q 2838 4666 3239 4311 
Q 3641 3956 3641 3272 
Q 3641 2581 3239 2228 
Q 2838 1875 2053 1875 
L 1259 1875 
L 1259 0 
L 628 0 
L 628 4666 
z
" transform="scale(0.015625)"/>
       <path id="DejaVuSans-72" d="M 2631 2963 
Q 2534 3019 2420 3045 
Q 2306 3072 2169 3072 
Q 1681 3072 1420 2755 
Q 1159 2438 1159 1844 
L 1159 0 
L 581 0 
L 581 3500 
L 1159 3500 
L 1159 2956 
Q 1341 3275 1631 3429 
Q 1922 3584 2338 3584 
Q 2397 3584 2469 3576 
Q 2541 3569 2628 3553 
L 2631 2963 
z
" transform="scale(0.015625)"/>
       <path id="DejaVuSans-6f" d="M 1959 3097 
Q 1497 3097 1228 2736 
Q 959 2375 959 1747 
Q 959 1119 1226 758 
Q 1494 397 1959 397 
Q 2419 397 2687 759 
Q 2956 1122 2956 1747 
Q 2956 2369 2687 2733 
Q 2419 3097 1959 3097 
z
M 1959 3584 
Q 2709 3584 3137 3096 
Q 3566 2609 3566 1747 
Q 3566 888 3137 398 
Q 2709 -91 1959 -91 
Q 1206 -91 779 398 
Q 353 888 353 1747 
Q 353 2609 779 3096 
Q 1206 3584 1959 3584 
z
" transform="scale(0.015625)"/>
       <path id="DejaVuSans-74" d="M 1172 4494 
L 1172 3500 
L 2356 3500 
L 2356 3053 
L 1172 3053 
L 1172 1153 
Q 1172 725 1289 603 
Q 1406 481 1766 481 
L 2356 481 
L 2356 0 
L 1766 0 
Q 1100 0 847 248 
Q 594 497 594 1153 
L 594 3053 
L 172 3053 
L 172 3500 
L 594 3500 
L 594 4494 
L 1172 4494 
z
" transform="scale(0.015625)"/>
       <path id="DejaVuSans-65" d="M 3597 1894 
L 3597 1613 
L 953 1613 
Q 991 1019 1311 708 
Q 1631 397 2203 397 
Q 2534 397 2845 478 
Q 3156 559 3463 722 
L 3463 178 
Q 3153 47 2828 -22 
Q 2503 -91 2169 -91 
Q 1331 -91 842 396 
Q 353 884 353 1716 
Q 353 2575 817 3079 
Q 1281 3584 2069 3584 
Q 2775 3584 3186 3129 
Q 3597 2675 3597 1894 
z
M 3022 2063 
Q 3016 2534 2758 2815 
Q 2500 3097 2075 3097 
Q 1594 3097 1305 2825 
Q 1016 2553 972 2059 
L 3022 2063 
z
" transform="scale(0.015625)"/>
       <path id="DejaVuSans-6d" d="M 3328 2828 
Q 3544 3216 3844 3400 
Q 4144 3584 4550 3584 
Q 5097 3584 5394 3201 
Q 5691 2819 5691 2113 
L 5691 0 
L 5113 0 
L 5113 2094 
Q 5113 2597 4934 2840 
Q 4756 3084 4391 3084 
Q 3944 3084 3684 2787 
Q 3425 2491 3425 1978 
L 3425 0 
L 2847 0 
L 2847 2094 
Q 2847 2600 2669 2842 
Q 2491 3084 2119 3084 
Q 1678 3084 1418 2786 
Q 1159 2488 1159 1978 
L 1159 0 
L 581 0 
L 581 3500 
L 1159 3500 
L 1159 2956 
Q 1356 3278 1631 3431 
Q 1906 3584 2284 3584 
Q 2666 3584 2933 3390 
Q 3200 3197 3328 2828 
z
" transform="scale(0.015625)"/>
       <path id="DejaVuSans-20" transform="scale(0.015625)"/>
       <path id="DejaVuSans-53" d="M 3425 4513 
L 3425 3897 
Q 3066 4069 2747 4153 
Q 2428 4238 2131 4238 
Q 1616 4238 1336 4038 
Q 1056 3838 1056 3469 
Q 1056 3159 1242 3001 
Q 1428 2844 1947 2747 
L 2328 2669 
Q 3034 2534 3370 2195 
Q 3706 1856 3706 1288 
Q 3706 609 3251 259 
Q 2797 -91 1919 -91 
Q 1588 -91 1214 -16 
Q 841 59 441 206 
L 441 856 
Q 825 641 1194 531 
Q 1563 422 1919 422 
Q 2459 422 2753 634 
Q 3047 847 3047 1241 
Q 3047 1584 2836 1778 
Q 2625 1972 2144 2069 
L 1759 2144 
Q 1053 2284 737 2584 
Q 422 2884 422 3419 
Q 422 4038 858 4394 
Q 1294 4750 2059 4750 
Q 2388 4750 2728 4690 
Q 3069 4631 3425 4513 
z
" transform="scale(0.015625)"/>
       <path id="DejaVuSans-69" d="M 603 3500 
L 1178 3500 
L 1178 0 
L 603 0 
L 603 3500 
z
M 603 4863 
L 1178 4863 
L 1178 4134 
L 603 4134 
L 603 4863 
z
" transform="scale(0.015625)"/>
       <path id="DejaVuSans-7a" d="M 353 3500 
L 3084 3500 
L 3084 2975 
L 922 459 
L 3084 459 
L 3084 0 
L 275 0 
L 275 525 
L 2438 3041 
L 353 3041 
L 353 3500 
z
" transform="scale(0.015625)"/>
      </defs>
      <use xlink:href="#DejaVuSans-50"/>
      <use xlink:href="#DejaVuSans-72" x="58.552734"/>
      <use xlink:href="#DejaVuSans-6f" x="97.416016"/>
      <use xlink:href="#DejaVuSans-74" x="158.597656"/>
      <use xlink:href="#DejaVuSans-65" x="197.806641"/>
      <use xlink:href="#DejaVuSans-6f" x="259.330078"/>
      <use xlink:href="#DejaVuSans-6d" x="320.511719"/>
      <use xlink:href="#DejaVuSans-65" x="417.923828"/>
      <use xlink:href="#DejaVuSans-20" x="479.447266"/>
      <use xlink:href="#DejaVuSans-53" x="511.234375"/>
      <use xlink:href="#DejaVuSans-69" x="574.710938"/>
      <use xlink:href="#DejaVuSans-7a" x="602.494141"/>
      <use xlink:href="#DejaVuSans-65" x="654.984375"/>
     </g>
    </g>
   </g>
   <g id="matplotlib.axis_2">
    <g id="ytick_1">
     <g id="line2d_8">
      <defs>
       <path id="m4a85323785" d="M 0 0 
L -3.5 0 
" style="stroke: #000000; stroke-width: 0.8"/>
      </defs>
      <g>
       <use xlink:href="#m4a85323785" x="63.92" y="502.752083" style="stroke: #000000; stroke-width: 0.8"/>
      </g>
     </g>
     <g id="text_9">
      <!-- 500 -->
      <g transform="translate(37.8325 506.551302) scale(0.1 -0.1)">
       <use xlink:href="#DejaVuSans-35"/>
       <use xlink:href="#DejaVuSans-30" x="63.623047"/>
       <use xlink:href="#DejaVuSans-30" x="127.246094"/>
      </g>
     </g>
    </g>
    <g id="ytick_2">
     <g id="line2d_9">
      <g>
       <use xlink:href="#m4a85323785" x="63.92" y="420.196621" style="stroke: #000000; stroke-width: 0.8"/>
      </g>
     </g>
     <g id="text_10">
      <!-- 1000 -->
      <g transform="translate(31.47 423.995839) scale(0.1 -0.1)">
       <use xlink:href="#DejaVuSans-31"/>
       <use xlink:href="#DejaVuSans-30" x="63.623047"/>
       <use xlink:href="#DejaVuSans-30" x="127.246094"/>
       <use xlink:href="#DejaVuSans-30" x="190.869141"/>
      </g>
     </g>
    </g>
    <g id="ytick_3">
     <g id="line2d_10">
      <g>
       <use xlink:href="#m4a85323785" x="63.92" y="337.641158" style="stroke: #000000; stroke-width: 0.8"/>
      </g>
     </g>
     <g id="text_11">
      <!-- 1500 -->
      <g transform="translate(31.47 341.440376) scale(0.1 -0.1)">
       <use xlink:href="#DejaVuSans-31"/>
       <use xlink:href="#DejaVuSans-35" x="63.623047"/>
       <use xlink:href="#DejaVuSans-30" x="127.246094"/>
       <use xlink:href="#DejaVuSans-30" x="190.869141"/>
      </g>
     </g>
    </g>
    <g id="ytick_4">
     <g id="line2d_11">
      <g>
       <use xlink:href="#m4a85323785" x="63.92" y="255.085695" style="stroke: #000000; stroke-width: 0.8"/>
      </g>
     </g>
     <g id="text_12">
      <!-- 2000 -->
      <g transform="translate(31.47 258.884913) scale(0.1 -0.1)">
       <use xlink:href="#DejaVuSans-32"/>
       <use xlink:href="#DejaVuSans-30" x="63.623047"/>
       <use xlink:href="#DejaVuSans-30" x="127.246094"/>
       <use xlink:href="#DejaVuSans-30" x="190.869141"/>
      </g>
     </g>
    </g>
    <g id="ytick_5">
     <g id="line2d_12">
      <g>
       <use xlink:href="#m4a85323785" x="63.92" y="172.530232" style="stroke: #000000; stroke-width: 0.8"/>
      </g>
     </g>
     <g id="text_13">
      <!-- 2500 -->
      <g transform="translate(31.47 176.329451) scale(0.1 -0.1)">
       <use xlink:href="#DejaVuSans-32"/>
       <use xlink:href="#DejaVuSans-35" x="63.623047"/>
       <use xlink:href="#DejaVuSans-30" x="127.246094"/>
       <use xlink:href="#DejaVuSans-30" x="190.869141"/>
      </g>
     </g>
    </g>
    <g id="ytick_6">
     <g id="line2d_13">
      <g>
       <use xlink:href="#m4a85323785" x="63.92" y="89.974769" style="stroke: #000000; stroke-width: 0.8"/>
      </g>
     </g>
     <g id="text_14">
      <!-- 3000 -->
      <g transform="translate(31.47 93.773988) scale(0.1 -0.1)">
       <use xlink:href="#DejaVuSans-33"/>
       <use xlink:href="#DejaVuSans-30" x="63.623047"/>
       <use xlink:href="#DejaVuSans-30" x="127.246094"/>
       <use xlink:href="#DejaVuSans-30" x="190.869141"/>
      </g>
     </g>
    </g>
    <g id="text_15">
     <!-- Number of Different Protein Families -->
     <g transform="translate(24.1425 425.65625) rotate(-90) scale(0.16 -0.16)">
      <defs>
       <path id="DejaVuSans-4e" d="M 628 4666 
L 1478 4666 
L 3547 763 
L 3547 4666 
L 4159 4666 
L 4159 0 
L 3309 0 
L 1241 3903 
L 1241 0 
L 628 0 
L 628 4666 
z
" transform="scale(0.015625)"/>
       <path id="DejaVuSans-75" d="M 544 1381 
L 544 3500 
L 1119 3500 
L 1119 1403 
Q 1119 906 1312 657 
Q 1506 409 1894 409 
Q 2359 409 2629 706 
Q 2900 1003 2900 1516 
L 2900 3500 
L 3475 3500 
L 3475 0 
L 2900 0 
L 2900 538 
Q 2691 219 2414 64 
Q 2138 -91 1772 -91 
Q 1169 -91 856 284 
Q 544 659 544 1381 
z
M 1991 3584 
L 1991 3584 
z
" transform="scale(0.015625)"/>
       <path id="DejaVuSans-62" d="M 3116 1747 
Q 3116 2381 2855 2742 
Q 2594 3103 2138 3103 
Q 1681 3103 1420 2742 
Q 1159 2381 1159 1747 
Q 1159 1113 1420 752 
Q 1681 391 2138 391 
Q 2594 391 2855 752 
Q 3116 1113 3116 1747 
z
M 1159 2969 
Q 1341 3281 1617 3432 
Q 1894 3584 2278 3584 
Q 2916 3584 3314 3078 
Q 3713 2572 3713 1747 
Q 3713 922 3314 415 
Q 2916 -91 2278 -91 
Q 1894 -91 1617 61 
Q 1341 213 1159 525 
L 1159 0 
L 581 0 
L 581 4863 
L 1159 4863 
L 1159 2969 
z
" transform="scale(0.015625)"/>
       <path id="DejaVuSans-66" d="M 2375 4863 
L 2375 4384 
L 1825 4384 
Q 1516 4384 1395 4259 
Q 1275 4134 1275 3809 
L 1275 3500 
L 2222 3500 
L 2222 3053 
L 1275 3053 
L 1275 0 
L 697 0 
L 697 3053 
L 147 3053 
L 147 3500 
L 697 3500 
L 697 3744 
Q 697 4328 969 4595 
Q 1241 4863 1831 4863 
L 2375 4863 
z
" transform="scale(0.015625)"/>
       <path id="DejaVuSans-44" d="M 1259 4147 
L 1259 519 
L 2022 519 
Q 2988 519 3436 956 
Q 3884 1394 3884 2338 
Q 3884 3275 3436 3711 
Q 2988 4147 2022 4147 
L 1259 4147 
z
M 628 4666 
L 1925 4666 
Q 3281 4666 3915 4102 
Q 4550 3538 4550 2338 
Q 4550 1131 3912 565 
Q 3275 0 1925 0 
L 628 0 
L 628 4666 
z
" transform="scale(0.015625)"/>
       <path id="DejaVuSans-6e" d="M 3513 2113 
L 3513 0 
L 2938 0 
L 2938 2094 
Q 2938 2591 2744 2837 
Q 2550 3084 2163 3084 
Q 1697 3084 1428 2787 
Q 1159 2491 1159 1978 
L 1159 0 
L 581 0 
L 581 3500 
L 1159 3500 
L 1159 2956 
Q 1366 3272 1645 3428 
Q 1925 3584 2291 3584 
Q 2894 3584 3203 3211 
Q 3513 2838 3513 2113 
z
" transform="scale(0.015625)"/>
       <path id="DejaVuSans-46" d="M 628 4666 
L 3309 4666 
L 3309 4134 
L 1259 4134 
L 1259 2759 
L 3109 2759 
L 3109 2228 
L 1259 2228 
L 1259 0 
L 628 0 
L 628 4666 
z
" transform="scale(0.015625)"/>
       <path id="DejaVuSans-61" d="M 2194 1759 
Q 1497 1759 1228 1600 
Q 959 1441 959 1056 
Q 959 750 1161 570 
Q 1363 391 1709 391 
Q 2188 391 2477 730 
Q 2766 1069 2766 1631 
L 2766 1759 
L 2194 1759 
z
M 3341 1997 
L 3341 0 
L 2766 0 
L 2766 531 
Q 2569 213 2275 61 
Q 1981 -91 1556 -91 
Q 1019 -91 701 211 
Q 384 513 384 1019 
Q 384 1609 779 1909 
Q 1175 2209 1959 2209 
L 2766 2209 
L 2766 2266 
Q 2766 2663 2505 2880 
Q 2244 3097 1772 3097 
Q 1472 3097 1187 3025 
Q 903 2953 641 2809 
L 641 3341 
Q 956 3463 1253 3523 
Q 1550 3584 1831 3584 
Q 2591 3584 2966 3190 
Q 3341 2797 3341 1997 
z
" transform="scale(0.015625)"/>
       <path id="DejaVuSans-6c" d="M 603 4863 
L 1178 4863 
L 1178 0 
L 603 0 
L 603 4863 
z
" transform="scale(0.015625)"/>
       <path id="DejaVuSans-73" d="M 2834 3397 
L 2834 2853 
Q 2591 2978 2328 3040 
Q 2066 3103 1784 3103 
Q 1356 3103 1142 2972 
Q 928 2841 928 2578 
Q 928 2378 1081 2264 
Q 1234 2150 1697 2047 
L 1894 2003 
Q 2506 1872 2764 1633 
Q 3022 1394 3022 966 
Q 3022 478 2636 193 
Q 2250 -91 1575 -91 
Q 1294 -91 989 -36 
Q 684 19 347 128 
L 347 722 
Q 666 556 975 473 
Q 1284 391 1588 391 
Q 1994 391 2212 530 
Q 2431 669 2431 922 
Q 2431 1156 2273 1281 
Q 2116 1406 1581 1522 
L 1381 1569 
Q 847 1681 609 1914 
Q 372 2147 372 2553 
Q 372 3047 722 3315 
Q 1072 3584 1716 3584 
Q 2034 3584 2315 3537 
Q 2597 3491 2834 3397 
z
" transform="scale(0.015625)"/>
      </defs>
      <use xlink:href="#DejaVuSans-4e"/>
      <use xlink:href="#DejaVuSans-75" x="74.804688"/>
      <use xlink:href="#DejaVuSans-6d" x="138.183594"/>
      <use xlink:href="#DejaVuSans-62" x="235.595703"/>
      <use xlink:href="#DejaVuSans-65" x="299.072266"/>
      <use xlink:href="#DejaVuSans-72" x="360.595703"/>
      <use xlink:href="#DejaVuSans-20" x="401.708984"/>
      <use xlink:href="#DejaVuSans-6f" x="433.496094"/>
      <use xlink:href="#DejaVuSans-66" x="494.677734"/>
      <use xlink:href="#DejaVuSans-20" x="529.882812"/>
      <use xlink:href="#DejaVuSans-44" x="561.669922"/>
      <use xlink:href="#DejaVuSans-69" x="638.671875"/>
      <use xlink:href="#DejaVuSans-66" x="666.455078"/>
      <use xlink:href="#DejaVuSans-66" x="701.660156"/>
      <use xlink:href="#DejaVuSans-65" x="736.865234"/>
      <use xlink:href="#DejaVuSans-72" x="798.388672"/>
      <use xlink:href="#DejaVuSans-65" x="837.251953"/>
      <use xlink:href="#DejaVuSans-6e" x="898.775391"/>
      <use xlink:href="#DejaVuSans-74" x="962.154297"/>
      <use xlink:href="#DejaVuSans-20" x="1001.363281"/>
      <use xlink:href="#DejaVuSans-50" x="1033.150391"/>
      <use xlink:href="#DejaVuSans-72" x="1091.703125"/>
      <use xlink:href="#DejaVuSans-6f" x="1130.566406"/>
      <use xlink:href="#DejaVuSans-74" x="1191.748047"/>
      <use xlink:href="#DejaVuSans-65" x="1230.957031"/>
      <use xlink:href="#DejaVuSans-69" x="1292.480469"/>
      <use xlink:href="#DejaVuSans-6e" x="1320.263672"/>
      <use xlink:href="#DejaVuSans-20" x="1383.642578"/>
      <use xlink:href="#DejaVuSans-46" x="1415.429688"/>
      <use xlink:href="#DejaVuSans-61" x="1463.824219"/>
      <use xlink:href="#DejaVuSans-6d" x="1525.103516"/>
      <use xlink:href="#DejaVuSans-69" x="1622.515625"/>
      <use xlink:href="#DejaVuSans-6c" x="1650.298828"/>
      <use xlink:href="#DejaVuSans-69" x="1678.082031"/>
      <use xlink:href="#DejaVuSans-65" x="1705.865234"/>
      <use xlink:href="#DejaVuSans-73" x="1767.388672"/>
     </g>
    </g>
   </g>
   <g id="patch_3">
    <path d="M 63.92 527.56 
L 63.92 32.64 
" style="fill: none; stroke: #000000; stroke-width: 0.8; stroke-linejoin: miter; stroke-linecap: square"/>
   </g>
   <g id="patch_4">
    <path d="M 853.2 527.56 
L 853.2 32.64 
" style="fill: none; stroke: #000000; stroke-width: 0.8; stroke-linejoin: miter; stroke-linecap: square"/>
   </g>
   <g id="patch_5">
    <path d="M 63.92 527.56 
L 853.2 527.56 
" style="fill: none; stroke: #000000; stroke-width: 0.8; stroke-linejoin: miter; stroke-linecap: square"/>
   </g>
   <g id="patch_6">
    <path d="M 63.92 32.64 
L 853.2 32.64 
" style="fill: none; stroke: #000000; stroke-width: 0.8; stroke-linejoin: miter; stroke-linecap: square"/>
   </g>
   <g id="text_16">
    <!-- Heaps' law - Top 8 "species" -->
    <g transform="translate(318.081875 26.64) scale(0.2 -0.2)">
     <defs>
      <path id="DejaVuSans-48" d="M 628 4666 
L 1259 4666 
L 1259 2753 
L 3553 2753 
L 3553 4666 
L 4184 4666 
L 4184 0 
L 3553 0 
L 3553 2222 
L 1259 2222 
L 1259 0 
L 628 0 
L 628 4666 
z
" transform="scale(0.015625)"/>
      <path id="DejaVuSans-70" d="M 1159 525 
L 1159 -1331 
L 581 -1331 
L 581 3500 
L 1159 3500 
L 1159 2969 
Q 1341 3281 1617 3432 
Q 1894 3584 2278 3584 
Q 2916 3584 3314 3078 
Q 3713 2572 3713 1747 
Q 3713 922 3314 415 
Q 2916 -91 2278 -91 
Q 1894 -91 1617 61 
Q 1341 213 1159 525 
z
M 3116 1747 
Q 3116 2381 2855 2742 
Q 2594 3103 2138 3103 
Q 1681 3103 1420 2742 
Q 1159 2381 1159 1747 
Q 1159 1113 1420 752 
Q 1681 391 2138 391 
Q 2594 391 2855 752 
Q 3116 1113 3116 1747 
z
" transform="scale(0.015625)"/>
      <path id="DejaVuSans-27" d="M 1147 4666 
L 1147 2931 
L 616 2931 
L 616 4666 
L 1147 4666 
z
" transform="scale(0.015625)"/>
      <path id="DejaVuSans-77" d="M 269 3500 
L 844 3500 
L 1563 769 
L 2278 3500 
L 2956 3500 
L 3675 769 
L 4391 3500 
L 4966 3500 
L 4050 0 
L 3372 0 
L 2619 2869 
L 1863 0 
L 1184 0 
L 269 3500 
z
" transform="scale(0.015625)"/>
      <path id="DejaVuSans-2d" d="M 313 2009 
L 1997 2009 
L 1997 1497 
L 313 1497 
L 313 2009 
z
" transform="scale(0.015625)"/>
      <path id="DejaVuSans-54" d="M -19 4666 
L 3928 4666 
L 3928 4134 
L 2272 4134 
L 2272 0 
L 1638 0 
L 1638 4134 
L -19 4134 
L -19 4666 
z
" transform="scale(0.015625)"/>
      <path id="DejaVuSans-38" d="M 2034 2216 
Q 1584 2216 1326 1975 
Q 1069 1734 1069 1313 
Q 1069 891 1326 650 
Q 1584 409 2034 409 
Q 2484 409 2743 651 
Q 3003 894 3003 1313 
Q 3003 1734 2745 1975 
Q 2488 2216 2034 2216 
z
M 1403 2484 
Q 997 2584 770 2862 
Q 544 3141 544 3541 
Q 544 4100 942 4425 
Q 1341 4750 2034 4750 
Q 2731 4750 3128 4425 
Q 3525 4100 3525 3541 
Q 3525 3141 3298 2862 
Q 3072 2584 2669 2484 
Q 3125 2378 3379 2068 
Q 3634 1759 3634 1313 
Q 3634 634 3220 271 
Q 2806 -91 2034 -91 
Q 1263 -91 848 271 
Q 434 634 434 1313 
Q 434 1759 690 2068 
Q 947 2378 1403 2484 
z
M 1172 3481 
Q 1172 3119 1398 2916 
Q 1625 2713 2034 2713 
Q 2441 2713 2670 2916 
Q 2900 3119 2900 3481 
Q 2900 3844 2670 4047 
Q 2441 4250 2034 4250 
Q 1625 4250 1398 4047 
Q 1172 3844 1172 3481 
z
" transform="scale(0.015625)"/>
      <path id="DejaVuSans-22" d="M 1147 4666 
L 1147 2931 
L 616 2931 
L 616 4666 
L 1147 4666 
z
M 2328 4666 
L 2328 2931 
L 1797 2931 
L 1797 4666 
L 2328 4666 
z
" transform="scale(0.015625)"/>
      <path id="DejaVuSans-63" d="M 3122 3366 
L 3122 2828 
Q 2878 2963 2633 3030 
Q 2388 3097 2138 3097 
Q 1578 3097 1268 2742 
Q 959 2388 959 1747 
Q 959 1106 1268 751 
Q 1578 397 2138 397 
Q 2388 397 2633 464 
Q 2878 531 3122 666 
L 3122 134 
Q 2881 22 2623 -34 
Q 2366 -91 2075 -91 
Q 1284 -91 818 406 
Q 353 903 353 1747 
Q 353 2603 823 3093 
Q 1294 3584 2113 3584 
Q 2378 3584 2631 3529 
Q 2884 3475 3122 3366 
z
" transform="scale(0.015625)"/>
     </defs>
     <use xlink:href="#DejaVuSans-48"/>
     <use xlink:href="#DejaVuSans-65" x="75.195312"/>
     <use xlink:href="#DejaVuSans-61" x="136.71875"/>
     <use xlink:href="#DejaVuSans-70" x="197.998047"/>
     <use xlink:href="#DejaVuSans-73" x="261.474609"/>
     <use xlink:href="#DejaVuSans-27" x="313.574219"/>
     <use xlink:href="#DejaVuSans-20" x="341.064453"/>
     <use xlink:href="#DejaVuSans-6c" x="372.851562"/>
     <use xlink:href="#DejaVuSans-61" x="400.634766"/>
     <use xlink:href="#DejaVuSans-77" x="461.914062"/>
     <use xlink:href="#DejaVuSans-20" x="543.701172"/>
     <use xlink:href="#DejaVuSans-2d" x="575.488281"/>
     <use xlink:href="#DejaVuSans-20" x="611.572266"/>
     <use xlink:href="#DejaVuSans-54" x="643.359375"/>
     <use xlink:href="#DejaVuSans-6f" x="687.443359"/>
     <use xlink:href="#DejaVuSans-70" x="748.625"/>
     <use xlink:href="#DejaVuSans-20" x="812.101562"/>
     <use xlink:href="#DejaVuSans-38" x="843.888672"/>
     <use xlink:href="#DejaVuSans-20" x="907.511719"/>
     <use xlink:href="#DejaVuSans-22" x="939.298828"/>
     <use xlink:href="#DejaVuSans-73" x="985.294922"/>
     <use xlink:href="#DejaVuSans-70" x="1037.394531"/>
     <use xlink:href="#DejaVuSans-65" x="1100.871094"/>
     <use xlink:href="#DejaVuSans-63" x="1162.394531"/>
     <use xlink:href="#DejaVuSans-69" x="1217.375"/>
     <use xlink:href="#DejaVuSans-65" x="1245.158203"/>
     <use xlink:href="#DejaVuSans-73" x="1306.681641"/>
     <use xlink:href="#DejaVuSans-22" x="1358.78125"/>
    </g>
   </g>
   <g id="legend_1">
    <g id="PathCollection_9">
     <defs>
      <path id="me1ad9156eb" d="M 0 4.242641 
C 1.125161 4.242641 2.204391 3.795609 3 3 
C 3.795609 2.204391 4.242641 1.125161 4.242641 0 
C 4.242641 -1.125161 3.795609 -2.204391 3 -3 
C 2.204391 -3.795609 1.125161 -4.242641 0 -4.242641 
C -1.125161 -4.242641 -2.204391 -3.795609 -3 -3 
C -3.795609 -2.204391 -4.242641 -1.125161 -4.242641 0 
C -4.242641 1.125161 -3.795609 2.204391 -3 3 
C -2.204391 3.795609 -1.125161 4.242641 0 4.242641 
z
" style="stroke: #1f77b4; stroke-opacity: 0.5"/>
     </defs>
     <g>
      <use xlink:href="#me1ad9156eb" x="685.267188" y="411.108437" style="fill: #1f77b4; fill-opacity: 0.5; stroke: #1f77b4; stroke-opacity: 0.5"/>
     </g>
    </g>
    <g id="text_17">
     <!-- Buchnera aphidicola -->
     <g transform="translate(703.267188 413.733437) scale(0.1 -0.1)">
      <defs>
       <path id="DejaVuSans-42" d="M 1259 2228 
L 1259 519 
L 2272 519 
Q 2781 519 3026 730 
Q 3272 941 3272 1375 
Q 3272 1813 3026 2020 
Q 2781 2228 2272 2228 
L 1259 2228 
z
M 1259 4147 
L 1259 2741 
L 2194 2741 
Q 2656 2741 2882 2914 
Q 3109 3088 3109 3444 
Q 3109 3797 2882 3972 
Q 2656 4147 2194 4147 
L 1259 4147 
z
M 628 4666 
L 2241 4666 
Q 2963 4666 3353 4366 
Q 3744 4066 3744 3513 
Q 3744 3084 3544 2831 
Q 3344 2578 2956 2516 
Q 3422 2416 3680 2098 
Q 3938 1781 3938 1306 
Q 3938 681 3513 340 
Q 3088 0 2303 0 
L 628 0 
L 628 4666 
z
" transform="scale(0.015625)"/>
       <path id="DejaVuSans-68" d="M 3513 2113 
L 3513 0 
L 2938 0 
L 2938 2094 
Q 2938 2591 2744 2837 
Q 2550 3084 2163 3084 
Q 1697 3084 1428 2787 
Q 1159 2491 1159 1978 
L 1159 0 
L 581 0 
L 581 4863 
L 1159 4863 
L 1159 2956 
Q 1366 3272 1645 3428 
Q 1925 3584 2291 3584 
Q 2894 3584 3203 3211 
Q 3513 2838 3513 2113 
z
" transform="scale(0.015625)"/>
       <path id="DejaVuSans-64" d="M 2906 2969 
L 2906 4863 
L 3481 4863 
L 3481 0 
L 2906 0 
L 2906 525 
Q 2725 213 2448 61 
Q 2172 -91 1784 -91 
Q 1150 -91 751 415 
Q 353 922 353 1747 
Q 353 2572 751 3078 
Q 1150 3584 1784 3584 
Q 2172 3584 2448 3432 
Q 2725 3281 2906 2969 
z
M 947 1747 
Q 947 1113 1208 752 
Q 1469 391 1925 391 
Q 2381 391 2643 752 
Q 2906 1113 2906 1747 
Q 2906 2381 2643 2742 
Q 2381 3103 1925 3103 
Q 1469 3103 1208 2742 
Q 947 2381 947 1747 
z
" transform="scale(0.015625)"/>
      </defs>
      <use xlink:href="#DejaVuSans-42"/>
      <use xlink:href="#DejaVuSans-75" x="68.603516"/>
      <use xlink:href="#DejaVuSans-63" x="131.982422"/>
      <use xlink:href="#DejaVuSans-68" x="186.962891"/>
      <use xlink:href="#DejaVuSans-6e" x="250.341797"/>
      <use xlink:href="#DejaVuSans-65" x="313.720703"/>
      <use xlink:href="#DejaVuSans-72" x="375.244141"/>
      <use xlink:href="#DejaVuSans-61" x="416.357422"/>
      <use xlink:href="#DejaVuSans-20" x="477.636719"/>
      <use xlink:href="#DejaVuSans-61" x="509.423828"/>
      <use xlink:href="#DejaVuSans-70" x="570.703125"/>
      <use xlink:href="#DejaVuSans-68" x="634.179688"/>
      <use xlink:href="#DejaVuSans-69" x="697.558594"/>
      <use xlink:href="#DejaVuSans-64" x="725.341797"/>
      <use xlink:href="#DejaVuSans-69" x="788.818359"/>
      <use xlink:href="#DejaVuSans-63" x="816.601562"/>
      <use xlink:href="#DejaVuSans-6f" x="871.582031"/>
      <use xlink:href="#DejaVuSans-6c" x="932.763672"/>
      <use xlink:href="#DejaVuSans-61" x="960.546875"/>
     </g>
    </g>
    <g id="PathCollection_10">
     <defs>
      <path id="ma076e92915" d="M 0 4.242641 
C 1.125161 4.242641 2.204391 3.795609 3 3 
C 3.795609 2.204391 4.242641 1.125161 4.242641 0 
C 4.242641 -1.125161 3.795609 -2.204391 3 -3 
C 2.204391 -3.795609 1.125161 -4.242641 0 -4.242641 
C -1.125161 -4.242641 -2.204391 -3.795609 -3 -3 
C -3.795609 -2.204391 -4.242641 -1.125161 -4.242641 0 
C -4.242641 1.125161 -3.795609 2.204391 -3 3 
C -2.204391 3.795609 -1.125161 4.242641 0 4.242641 
z
" style="stroke: #ff7f0e; stroke-opacity: 0.5"/>
     </defs>
     <g>
      <use xlink:href="#ma076e92915" x="685.267188" y="425.786563" style="fill: #ff7f0e; fill-opacity: 0.5; stroke: #ff7f0e; stroke-opacity: 0.5"/>
     </g>
    </g>
    <g id="text_18">
     <!-- Escherichia coli -->
     <g transform="translate(703.267188 428.411563) scale(0.1 -0.1)">
      <defs>
       <path id="DejaVuSans-45" d="M 628 4666 
L 3578 4666 
L 3578 4134 
L 1259 4134 
L 1259 2753 
L 3481 2753 
L 3481 2222 
L 1259 2222 
L 1259 531 
L 3634 531 
L 3634 0 
L 628 0 
L 628 4666 
z
" transform="scale(0.015625)"/>
      </defs>
      <use xlink:href="#DejaVuSans-45"/>
      <use xlink:href="#DejaVuSans-73" x="63.183594"/>
      <use xlink:href="#DejaVuSans-63" x="115.283203"/>
      <use xlink:href="#DejaVuSans-68" x="170.263672"/>
      <use xlink:href="#DejaVuSans-65" x="233.642578"/>
      <use xlink:href="#DejaVuSans-72" x="295.166016"/>
      <use xlink:href="#DejaVuSans-69" x="336.279297"/>
      <use xlink:href="#DejaVuSans-63" x="364.0625"/>
      <use xlink:href="#DejaVuSans-68" x="419.042969"/>
      <use xlink:href="#DejaVuSans-69" x="482.421875"/>
      <use xlink:href="#DejaVuSans-61" x="510.205078"/>
      <use xlink:href="#DejaVuSans-20" x="571.484375"/>
      <use xlink:href="#DejaVuSans-63" x="603.271484"/>
      <use xlink:href="#DejaVuSans-6f" x="658.251953"/>
      <use xlink:href="#DejaVuSans-6c" x="719.433594"/>
      <use xlink:href="#DejaVuSans-69" x="747.216797"/>
     </g>
    </g>
    <g id="PathCollection_11">
     <defs>
      <path id="m4d6b4fd3be" d="M 0 4.242641 
C 1.125161 4.242641 2.204391 3.795609 3 3 
C 3.795609 2.204391 4.242641 1.125161 4.242641 0 
C 4.242641 -1.125161 3.795609 -2.204391 3 -3 
C 2.204391 -3.795609 1.125161 -4.242641 0 -4.242641 
C -1.125161 -4.242641 -2.204391 -3.795609 -3 -3 
C -3.795609 -2.204391 -4.242641 -1.125161 -4.242641 0 
C -4.242641 1.125161 -3.795609 2.204391 -3 3 
C -2.204391 3.795609 -1.125161 4.242641 0 4.242641 
z
" style="stroke: #2ca02c; stroke-opacity: 0.5"/>
     </defs>
     <g>
      <use xlink:href="#m4d6b4fd3be" x="685.267188" y="440.464687" style="fill: #2ca02c; fill-opacity: 0.5; stroke: #2ca02c; stroke-opacity: 0.5"/>
     </g>
    </g>
    <g id="text_19">
     <!-- Prochlorococcus marinus -->
     <g transform="translate(703.267188 443.089687) scale(0.1 -0.1)">
      <use xlink:href="#DejaVuSans-50"/>
      <use xlink:href="#DejaVuSans-72" x="58.552734"/>
      <use xlink:href="#DejaVuSans-6f" x="97.416016"/>
      <use xlink:href="#DejaVuSans-63" x="158.597656"/>
      <use xlink:href="#DejaVuSans-68" x="213.578125"/>
      <use xlink:href="#DejaVuSans-6c" x="276.957031"/>
      <use xlink:href="#DejaVuSans-6f" x="304.740234"/>
      <use xlink:href="#DejaVuSans-72" x="365.921875"/>
      <use xlink:href="#DejaVuSans-6f" x="404.785156"/>
      <use xlink:href="#DejaVuSans-63" x="465.966797"/>
      <use xlink:href="#DejaVuSans-6f" x="520.947266"/>
      <use xlink:href="#DejaVuSans-63" x="582.128906"/>
      <use xlink:href="#DejaVuSans-63" x="637.109375"/>
      <use xlink:href="#DejaVuSans-75" x="692.089844"/>
      <use xlink:href="#DejaVuSans-73" x="755.46875"/>
      <use xlink:href="#DejaVuSans-20" x="807.568359"/>
      <use xlink:href="#DejaVuSans-6d" x="839.355469"/>
      <use xlink:href="#DejaVuSans-61" x="936.767578"/>
      <use xlink:href="#DejaVuSans-72" x="998.046875"/>
      <use xlink:href="#DejaVuSans-69" x="1039.160156"/>
      <use xlink:href="#DejaVuSans-6e" x="1066.943359"/>
      <use xlink:href="#DejaVuSans-75" x="1130.322266"/>
      <use xlink:href="#DejaVuSans-73" x="1193.701172"/>
     </g>
    </g>
    <g id="PathCollection_12">
     <defs>
      <path id="m60574392aa" d="M 0 4.242641 
C 1.125161 4.242641 2.204391 3.795609 3 3 
C 3.795609 2.204391 4.242641 1.125161 4.242641 0 
C 4.242641 -1.125161 3.795609 -2.204391 3 -3 
C 2.204391 -3.795609 1.125161 -4.242641 0 -4.242641 
C -1.125161 -4.242641 -2.204391 -3.795609 -3 -3 
C -3.795609 -2.204391 -4.242641 -1.125161 -4.242641 0 
C -4.242641 1.125161 -3.795609 2.204391 -3 3 
C -2.204391 3.795609 -1.125161 4.242641 0 4.242641 
z
" style="stroke: #9467bd; stroke-opacity: 0.5"/>
     </defs>
     <g>
      <use xlink:href="#m60574392aa" x="685.267188" y="455.142812" style="fill: #9467bd; fill-opacity: 0.5; stroke: #9467bd; stroke-opacity: 0.5"/>
     </g>
    </g>
    <g id="text_20">
     <!-- Mycobacterium tuberculosis -->
     <g transform="translate(703.267188 457.767812) scale(0.1 -0.1)">
      <defs>
       <path id="DejaVuSans-4d" d="M 628 4666 
L 1569 4666 
L 2759 1491 
L 3956 4666 
L 4897 4666 
L 4897 0 
L 4281 0 
L 4281 4097 
L 3078 897 
L 2444 897 
L 1241 4097 
L 1241 0 
L 628 0 
L 628 4666 
z
" transform="scale(0.015625)"/>
       <path id="DejaVuSans-79" d="M 2059 -325 
Q 1816 -950 1584 -1140 
Q 1353 -1331 966 -1331 
L 506 -1331 
L 506 -850 
L 844 -850 
Q 1081 -850 1212 -737 
Q 1344 -625 1503 -206 
L 1606 56 
L 191 3500 
L 800 3500 
L 1894 763 
L 2988 3500 
L 3597 3500 
L 2059 -325 
z
" transform="scale(0.015625)"/>
      </defs>
      <use xlink:href="#DejaVuSans-4d"/>
      <use xlink:href="#DejaVuSans-79" x="86.279297"/>
      <use xlink:href="#DejaVuSans-63" x="145.458984"/>
      <use xlink:href="#DejaVuSans-6f" x="200.439453"/>
      <use xlink:href="#DejaVuSans-62" x="261.621094"/>
      <use xlink:href="#DejaVuSans-61" x="325.097656"/>
      <use xlink:href="#DejaVuSans-63" x="386.376953"/>
      <use xlink:href="#DejaVuSans-74" x="441.357422"/>
      <use xlink:href="#DejaVuSans-65" x="480.566406"/>
      <use xlink:href="#DejaVuSans-72" x="542.089844"/>
      <use xlink:href="#DejaVuSans-69" x="583.203125"/>
      <use xlink:href="#DejaVuSans-75" x="610.986328"/>
      <use xlink:href="#DejaVuSans-6d" x="674.365234"/>
      <use xlink:href="#DejaVuSans-20" x="771.777344"/>
      <use xlink:href="#DejaVuSans-74" x="803.564453"/>
      <use xlink:href="#DejaVuSans-75" x="842.773438"/>
      <use xlink:href="#DejaVuSans-62" x="906.152344"/>
      <use xlink:href="#DejaVuSans-65" x="969.628906"/>
      <use xlink:href="#DejaVuSans-72" x="1031.152344"/>
      <use xlink:href="#DejaVuSans-63" x="1070.015625"/>
      <use xlink:href="#DejaVuSans-75" x="1124.996094"/>
      <use xlink:href="#DejaVuSans-6c" x="1188.375"/>
      <use xlink:href="#DejaVuSans-6f" x="1216.158203"/>
      <use xlink:href="#DejaVuSans-73" x="1277.339844"/>
      <use xlink:href="#DejaVuSans-69" x="1329.439453"/>
      <use xlink:href="#DejaVuSans-73" x="1357.222656"/>
     </g>
    </g>
    <g id="PathCollection_13">
     <defs>
      <path id="m0cec35b2ea" d="M 0 4.242641 
C 1.125161 4.242641 2.204391 3.795609 3 3 
C 3.795609 2.204391 4.242641 1.125161 4.242641 0 
C 4.242641 -1.125161 3.795609 -2.204391 3 -3 
C 2.204391 -3.795609 1.125161 -4.242641 0 -4.242641 
C -1.125161 -4.242641 -2.204391 -3.795609 -3 -3 
C -3.795609 -2.204391 -4.242641 -1.125161 -4.242641 0 
C -4.242641 1.125161 -3.795609 2.204391 -3 3 
C -2.204391 3.795609 -1.125161 4.242641 0 4.242641 
z
" style="stroke: #8c564b; stroke-opacity: 0.5"/>
     </defs>
     <g>
      <use xlink:href="#m0cec35b2ea" x="685.267188" y="469.820938" style="fill: #8c564b; fill-opacity: 0.5; stroke: #8c564b; stroke-opacity: 0.5"/>
     </g>
    </g>
    <g id="text_21">
     <!-- Salmonella enterica -->
     <g transform="translate(703.267188 472.445938) scale(0.1 -0.1)">
      <use xlink:href="#DejaVuSans-53"/>
      <use xlink:href="#DejaVuSans-61" x="63.476562"/>
      <use xlink:href="#DejaVuSans-6c" x="124.755859"/>
      <use xlink:href="#DejaVuSans-6d" x="152.539062"/>
      <use xlink:href="#DejaVuSans-6f" x="249.951172"/>
      <use xlink:href="#DejaVuSans-6e" x="311.132812"/>
      <use xlink:href="#DejaVuSans-65" x="374.511719"/>
      <use xlink:href="#DejaVuSans-6c" x="436.035156"/>
      <use xlink:href="#DejaVuSans-6c" x="463.818359"/>
      <use xlink:href="#DejaVuSans-61" x="491.601562"/>
      <use xlink:href="#DejaVuSans-20" x="552.880859"/>
      <use xlink:href="#DejaVuSans-65" x="584.667969"/>
      <use xlink:href="#DejaVuSans-6e" x="646.191406"/>
      <use xlink:href="#DejaVuSans-74" x="709.570312"/>
      <use xlink:href="#DejaVuSans-65" x="748.779297"/>
      <use xlink:href="#DejaVuSans-72" x="810.302734"/>
      <use xlink:href="#DejaVuSans-69" x="851.416016"/>
      <use xlink:href="#DejaVuSans-63" x="879.199219"/>
      <use xlink:href="#DejaVuSans-61" x="934.179688"/>
     </g>
    </g>
    <g id="PathCollection_14">
     <defs>
      <path id="mbf807fec58" d="M 0 4.242641 
C 1.125161 4.242641 2.204391 3.795609 3 3 
C 3.795609 2.204391 4.242641 1.125161 4.242641 0 
C 4.242641 -1.125161 3.795609 -2.204391 3 -3 
C 2.204391 -3.795609 1.125161 -4.242641 0 -4.242641 
C -1.125161 -4.242641 -2.204391 -3.795609 -3 -3 
C -3.795609 -2.204391 -4.242641 -1.125161 -4.242641 0 
C -4.242641 1.125161 -3.795609 2.204391 -3 3 
C -2.204391 3.795609 -1.125161 4.242641 0 4.242641 
z
" style="stroke: #7f7f7f; stroke-opacity: 0.5"/>
     </defs>
     <g>
      <use xlink:href="#mbf807fec58" x="685.267188" y="484.499062" style="fill: #7f7f7f; fill-opacity: 0.5; stroke: #7f7f7f; stroke-opacity: 0.5"/>
     </g>
    </g>
    <g id="text_22">
     <!-- Streptococcus pneumoniae -->
     <g transform="translate(703.267188 487.124062) scale(0.1 -0.1)">
      <use xlink:href="#DejaVuSans-53"/>
      <use xlink:href="#DejaVuSans-74" x="63.476562"/>
      <use xlink:href="#DejaVuSans-72" x="102.685547"/>
      <use xlink:href="#DejaVuSans-65" x="141.548828"/>
      <use xlink:href="#DejaVuSans-70" x="203.072266"/>
      <use xlink:href="#DejaVuSans-74" x="266.548828"/>
      <use xlink:href="#DejaVuSans-6f" x="305.757812"/>
      <use xlink:href="#DejaVuSans-63" x="366.939453"/>
      <use xlink:href="#DejaVuSans-6f" x="421.919922"/>
      <use xlink:href="#DejaVuSans-63" x="483.101562"/>
      <use xlink:href="#DejaVuSans-63" x="538.082031"/>
      <use xlink:href="#DejaVuSans-75" x="593.0625"/>
      <use xlink:href="#DejaVuSans-73" x="656.441406"/>
      <use xlink:href="#DejaVuSans-20" x="708.541016"/>
      <use xlink:href="#DejaVuSans-70" x="740.328125"/>
      <use xlink:href="#DejaVuSans-6e" x="803.804688"/>
      <use xlink:href="#DejaVuSans-65" x="867.183594"/>
      <use xlink:href="#DejaVuSans-75" x="928.707031"/>
      <use xlink:href="#DejaVuSans-6d" x="992.085938"/>
      <use xlink:href="#DejaVuSans-6f" x="1089.498047"/>
      <use xlink:href="#DejaVuSans-6e" x="1150.679688"/>
      <use xlink:href="#DejaVuSans-69" x="1214.058594"/>
      <use xlink:href="#DejaVuSans-61" x="1241.841797"/>
      <use xlink:href="#DejaVuSans-65" x="1303.121094"/>
     </g>
    </g>
    <g id="PathCollection_15">
     <defs>
      <path id="ma9f6bb7775" d="M 0 4.242641 
C 1.125161 4.242641 2.204391 3.795609 3 3 
C 3.795609 2.204391 4.242641 1.125161 4.242641 0 
C 4.242641 -1.125161 3.795609 -2.204391 3 -3 
C 2.204391 -3.795609 1.125161 -4.242641 0 -4.242641 
C -1.125161 -4.242641 -2.204391 -3.795609 -3 -3 
C -3.795609 -2.204391 -4.242641 -1.125161 -4.242641 0 
C -4.242641 1.125161 -3.795609 2.204391 -3 3 
C -2.204391 3.795609 -1.125161 4.242641 0 4.242641 
z
" style="stroke: #bcbd22; stroke-opacity: 0.5"/>
     </defs>
     <g>
      <use xlink:href="#ma9f6bb7775" x="685.267188" y="499.177187" style="fill: #bcbd22; fill-opacity: 0.5; stroke: #bcbd22; stroke-opacity: 0.5"/>
     </g>
    </g>
    <g id="text_23">
     <!-- Bdellovibrio bacteriovorus -->
     <g transform="translate(703.267188 501.802187) scale(0.1 -0.1)">
      <defs>
       <path id="DejaVuSans-76" d="M 191 3500 
L 800 3500 
L 1894 563 
L 2988 3500 
L 3597 3500 
L 2284 0 
L 1503 0 
L 191 3500 
z
" transform="scale(0.015625)"/>
      </defs>
      <use xlink:href="#DejaVuSans-42"/>
      <use xlink:href="#DejaVuSans-64" x="68.603516"/>
      <use xlink:href="#DejaVuSans-65" x="132.080078"/>
      <use xlink:href="#DejaVuSans-6c" x="193.603516"/>
      <use xlink:href="#DejaVuSans-6c" x="221.386719"/>
      <use xlink:href="#DejaVuSans-6f" x="249.169922"/>
      <use xlink:href="#DejaVuSans-76" x="310.351562"/>
      <use xlink:href="#DejaVuSans-69" x="369.53125"/>
      <use xlink:href="#DejaVuSans-62" x="397.314453"/>
      <use xlink:href="#DejaVuSans-72" x="460.791016"/>
      <use xlink:href="#DejaVuSans-69" x="501.904297"/>
      <use xlink:href="#DejaVuSans-6f" x="529.6875"/>
      <use xlink:href="#DejaVuSans-20" x="590.869141"/>
      <use xlink:href="#DejaVuSans-62" x="622.65625"/>
      <use xlink:href="#DejaVuSans-61" x="686.132812"/>
      <use xlink:href="#DejaVuSans-63" x="747.412109"/>
      <use xlink:href="#DejaVuSans-74" x="802.392578"/>
      <use xlink:href="#DejaVuSans-65" x="841.601562"/>
      <use xlink:href="#DejaVuSans-72" x="903.125"/>
      <use xlink:href="#DejaVuSans-69" x="944.238281"/>
      <use xlink:href="#DejaVuSans-6f" x="972.021484"/>
      <use xlink:href="#DejaVuSans-76" x="1033.203125"/>
      <use xlink:href="#DejaVuSans-6f" x="1092.382812"/>
      <use xlink:href="#DejaVuSans-72" x="1153.564453"/>
      <use xlink:href="#DejaVuSans-75" x="1194.677734"/>
      <use xlink:href="#DejaVuSans-73" x="1258.056641"/>
     </g>
    </g>
    <g id="PathCollection_16">
     <defs>
      <path id="mb7ac0df959" d="M 0 4.242641 
C 1.125161 4.242641 2.204391 3.795609 3 3 
C 3.795609 2.204391 4.242641 1.125161 4.242641 0 
C 4.242641 -1.125161 3.795609 -2.204391 3 -3 
C 2.204391 -3.795609 1.125161 -4.242641 0 -4.242641 
C -1.125161 -4.242641 -2.204391 -3.795609 -3 -3 
C -3.795609 -2.204391 -4.242641 -1.125161 -4.242641 0 
C -4.242641 1.125161 -3.795609 2.204391 -3 3 
C -2.204391 3.795609 -1.125161 4.242641 0 4.242641 
z
" style="stroke: #17becf; stroke-opacity: 0.5"/>
     </defs>
     <g>
      <use xlink:href="#mb7ac0df959" x="685.267188" y="513.855312" style="fill: #17becf; fill-opacity: 0.5; stroke: #17becf; stroke-opacity: 0.5"/>
     </g>
    </g>
    <g id="text_24">
     <!-- Martelella mediterranea -->
     <g transform="translate(703.267188 516.480312) scale(0.1 -0.1)">
      <use xlink:href="#DejaVuSans-4d"/>
      <use xlink:href="#DejaVuSans-61" x="86.279297"/>
      <use xlink:href="#DejaVuSans-72" x="147.558594"/>
      <use xlink:href="#DejaVuSans-74" x="188.671875"/>
      <use xlink:href="#DejaVuSans-65" x="227.880859"/>
      <use xlink:href="#DejaVuSans-6c" x="289.404297"/>
      <use xlink:href="#DejaVuSans-65" x="317.1875"/>
      <use xlink:href="#DejaVuSans-6c" x="378.710938"/>
      <use xlink:href="#DejaVuSans-6c" x="406.494141"/>
      <use xlink:href="#DejaVuSans-61" x="434.277344"/>
      <use xlink:href="#DejaVuSans-20" x="495.556641"/>
      <use xlink:href="#DejaVuSans-6d" x="527.34375"/>
      <use xlink:href="#DejaVuSans-65" x="624.755859"/>
      <use xlink:href="#DejaVuSans-64" x="686.279297"/>
      <use xlink:href="#DejaVuSans-69" x="749.755859"/>
      <use xlink:href="#DejaVuSans-74" x="777.539062"/>
      <use xlink:href="#DejaVuSans-65" x="816.748047"/>
      <use xlink:href="#DejaVuSans-72" x="878.271484"/>
      <use xlink:href="#DejaVuSans-72" x="917.634766"/>
      <use xlink:href="#DejaVuSans-61" x="958.748047"/>
      <use xlink:href="#DejaVuSans-6e" x="1020.027344"/>
      <use xlink:href="#DejaVuSans-65" x="1083.40625"/>
      <use xlink:href="#DejaVuSans-61" x="1144.929688"/>
     </g>
    </g>
   </g>
  </g>
 </g>
 <defs>
  <clipPath id="p74422b6e97">
   <rect x="63.92" y="32.64" width="789.28" height="494.92"/>
  </clipPath>
 </defs>
</svg>
